<svg xmlns="http://www.w3.org/2000/svg" viewBox="0 0 1600 1000" fill="none"><defs><linearGradient id="leaf" x2="1" y2=".3"><stop stop-color="#194a32"/><stop offset=".55" stop-color="#75b983"/><stop offset="1" stop-color="#c2dda6"/></linearGradient><linearGradient id="mount" x2="0" y2="1"><stop stop-color="#627eac"/><stop offset="1" stop-color="#152743"/></linearGradient><radialGradient id="moon"><stop stop-color="#fffef0"/><stop offset=".8" stop-color="#c7deff"/><stop offset="1" stop-color="#6a96d0"/></radialGradient><radialGradient id="sun"><stop stop-color="#fff9c7"/><stop offset=".45" stop-color="#ffbd61"/><stop offset="1" stop-color="#df5422" stop-opacity="0"/></radialGradient><linearGradient id="petal"><stop stop-color="#fff0f5"/><stop offset=".55" stop-color="#ec9abb"/><stop offset="1" stop-color="#c44b83"/></linearGradient><filter id="blur"><feGaussianBlur stdDeviation="38"/></filter><filter id="soft"><feGaussianBlur stdDeviation="8"/></filter><linearGradient id="ribbon" x2="1" y2="1"><stop stop-color="#7356c8" stop-opacity="0"/><stop offset=".55" stop-color="#a683f5" stop-opacity=".75"/><stop offset="1" stop-color="#5730a2" stop-opacity="0"/></linearGradient></defs><circle cx="0" cy="0" r="1.7" fill="#d7e7ff" opacity="0.2"/><circle cx="347" cy="179" r="0.7" fill="#d7e7ff" opacity="0.32"/><circle cx="694" cy="358" r="0.7" fill="#d7e7ff" opacity="0.44"/><circle cx="1041" cy="537" r="0.7" fill="#d7e7ff" opacity="0.56"/><circle cx="1388" cy="716" r="0.7" fill="#d7e7ff" opacity="0.6799999999999999"/><circle cx="135" cy="115" r="1.7" fill="#d7e7ff" opacity="0.2"/><circle cx="482" cy="294" r="0.7" fill="#d7e7ff" opacity="0.32"/><circle cx="829" cy="473" r="0.7" fill="#d7e7ff" opacity="0.44"/><circle cx="1176" cy="652" r="0.7" fill="#d7e7ff" opacity="0.56"/><circle cx="1523" cy="51" r="0.7" fill="#d7e7ff" opacity="0.6799999999999999"/><circle cx="270" cy="230" r="1.7" fill="#d7e7ff" opacity="0.2"/><circle cx="617" cy="409" r="0.7" fill="#d7e7ff" opacity="0.32"/><circle cx="964" cy="588" r="0.7" fill="#d7e7ff" opacity="0.44"/><circle cx="1311" cy="767" r="0.7" fill="#d7e7ff" opacity="0.56"/><circle cx="58" cy="166" r="0.7" fill="#d7e7ff" opacity="0.6799999999999999"/><circle cx="405" cy="345" r="1.7" fill="#d7e7ff" opacity="0.2"/><circle cx="752" cy="524" r="0.7" fill="#d7e7ff" opacity="0.32"/><circle cx="1099" cy="703" r="0.7" fill="#d7e7ff" opacity="0.44"/><circle cx="1446" cy="102" r="0.7" fill="#d7e7ff" opacity="0.56"/><circle cx="193" cy="281" r="0.7" fill="#d7e7ff" opacity="0.6799999999999999"/><circle cx="540" cy="460" r="1.7" fill="#d7e7ff" opacity="0.2"/><circle cx="887" cy="639" r="0.7" fill="#d7e7ff" opacity="0.32"/><circle cx="1234" cy="38" r="0.7" fill="#d7e7ff" opacity="0.44"/><circle cx="1581" cy="217" r="0.7" fill="#d7e7ff" opacity="0.56"/><circle cx="328" cy="396" r="0.7" fill="#d7e7ff" opacity="0.6799999999999999"/><circle cx="675" cy="575" r="1.7" fill="#d7e7ff" opacity="0.2"/><circle cx="1022" cy="754" r="0.7" fill="#d7e7ff" opacity="0.32"/><circle cx="1369" cy="153" r="0.7" fill="#d7e7ff" opacity="0.44"/><circle cx="116" cy="332" r="0.7" fill="#d7e7ff" opacity="0.56"/><circle cx="463" cy="511" r="0.7" fill="#d7e7ff" opacity="0.6799999999999999"/><circle cx="810" cy="690" r="1.7" fill="#d7e7ff" opacity="0.2"/><circle cx="1157" cy="89" r="0.7" fill="#d7e7ff" opacity="0.32"/><circle cx="1504" cy="268" r="0.7" fill="#d7e7ff" opacity="0.44"/><circle cx="251" cy="447" r="0.7" fill="#d7e7ff" opacity="0.56"/><circle cx="598" cy="626" r="0.7" fill="#d7e7ff" opacity="0.6799999999999999"/><circle cx="945" cy="25" r="1.7" fill="#d7e7ff" opacity="0.2"/><circle cx="1292" cy="204" r="0.7" fill="#d7e7ff" opacity="0.32"/><circle cx="39" cy="383" r="0.7" fill="#d7e7ff" opacity="0.44"/><circle cx="386" cy="562" r="0.7" fill="#d7e7ff" opacity="0.56"/><circle cx="733" cy="741" r="0.7" fill="#d7e7ff" opacity="0.6799999999999999"/><circle cx="1080" cy="140" r="1.7" fill="#d7e7ff" opacity="0.2"/><circle cx="1427" cy="319" r="0.7" fill="#d7e7ff" opacity="0.32"/><circle cx="174" cy="498" r="0.7" fill="#d7e7ff" opacity="0.44"/><circle cx="521" cy="677" r="0.7" fill="#d7e7ff" opacity="0.56"/><circle cx="868" cy="76" r="0.7" fill="#d7e7ff" opacity="0.6799999999999999"/><circle cx="1215" cy="255" r="1.7" fill="#d7e7ff" opacity="0.2"/><circle cx="1562" cy="434" r="0.7" fill="#d7e7ff" opacity="0.32"/><circle cx="309" cy="613" r="0.7" fill="#d7e7ff" opacity="0.44"/><circle cx="656" cy="12" r="0.7" fill="#d7e7ff" opacity="0.56"/><circle cx="1003" cy="191" r="0.7" fill="#d7e7ff" opacity="0.6799999999999999"/><circle cx="1350" cy="370" r="1.7" fill="#d7e7ff" opacity="0.2"/><circle cx="97" cy="549" r="0.7" fill="#d7e7ff" opacity="0.32"/><circle cx="444" cy="728" r="0.7" fill="#d7e7ff" opacity="0.44"/><circle cx="791" cy="127" r="0.7" fill="#d7e7ff" opacity="0.56"/><circle cx="1138" cy="306" r="0.7" fill="#d7e7ff" opacity="0.6799999999999999"/><circle cx="1485" cy="485" r="1.7" fill="#d7e7ff" opacity="0.2"/><circle cx="232" cy="664" r="0.7" fill="#d7e7ff" opacity="0.32"/><circle cx="579" cy="63" r="0.7" fill="#d7e7ff" opacity="0.44"/><circle cx="926" cy="242" r="0.7" fill="#d7e7ff" opacity="0.56"/><circle cx="1273" cy="421" r="0.7" fill="#d7e7ff" opacity="0.6799999999999999"/><circle cx="20" cy="600" r="1.7" fill="#d7e7ff" opacity="0.2"/><circle cx="367" cy="779" r="0.7" fill="#d7e7ff" opacity="0.32"/><circle cx="714" cy="178" r="0.7" fill="#d7e7ff" opacity="0.44"/><circle cx="1061" cy="357" r="0.7" fill="#d7e7ff" opacity="0.56"/><circle cx="1408" cy="536" r="0.7" fill="#d7e7ff" opacity="0.6799999999999999"/><circle cx="155" cy="715" r="1.7" fill="#d7e7ff" opacity="0.2"/><circle cx="502" cy="114" r="0.7" fill="#d7e7ff" opacity="0.32"/><circle cx="849" cy="293" r="0.7" fill="#d7e7ff" opacity="0.44"/><circle cx="1196" cy="472" r="0.7" fill="#d7e7ff" opacity="0.56"/><circle cx="1543" cy="651" r="0.7" fill="#d7e7ff" opacity="0.6799999999999999"/><circle cx="290" cy="50" r="1.7" fill="#d7e7ff" opacity="0.2"/><circle cx="637" cy="229" r="0.7" fill="#d7e7ff" opacity="0.32"/><circle cx="984" cy="408" r="0.7" fill="#d7e7ff" opacity="0.44"/><circle cx="1331" cy="587" r="0.7" fill="#d7e7ff" opacity="0.56"/><circle cx="78" cy="766" r="0.7" fill="#d7e7ff" opacity="0.6799999999999999"/><circle cx="425" cy="165" r="1.7" fill="#d7e7ff" opacity="0.2"/><circle cx="772" cy="344" r="0.7" fill="#d7e7ff" opacity="0.32"/><circle cx="1119" cy="523" r="0.7" fill="#d7e7ff" opacity="0.44"/><circle cx="1466" cy="702" r="0.7" fill="#d7e7ff" opacity="0.56"/><circle cx="213" cy="101" r="0.7" fill="#d7e7ff" opacity="0.6799999999999999"/><circle cx="560" cy="280" r="1.7" fill="#d7e7ff" opacity="0.2"/><circle cx="907" cy="459" r="0.7" fill="#d7e7ff" opacity="0.32"/><circle cx="1254" cy="638" r="0.7" fill="#d7e7ff" opacity="0.44"/><circle cx="1" cy="37" r="0.7" fill="#d7e7ff" opacity="0.56"/><circle cx="348" cy="216" r="0.7" fill="#d7e7ff" opacity="0.6799999999999999"/><ellipse cx="210" cy="760" rx="340" ry="150" fill="#873fda" opacity=".4" filter="url(#blur)"/><path d="M-160 1000 Q540 800 230 300 T890 -100" fill="none" stroke="url(#ribbon)" stroke-width="150"/><path d="M-180 1000 Q550 805 250 310 T900 -100" fill="none" stroke="#cab5ff" stroke-width="2" opacity=".4"/><path d="M700 1100 Q1550 530 1390 130" fill="none" stroke="url(#ribbon)" stroke-width="120"/></svg>